<svg width="524" height="85" viewBox="0 0 524 85" fill="none" xmlns="http://www.w3.org/2000/svg">
<path d="M488.647 1.41602L514.135 64.664C517.557 73.042 519.563 78.824 523.339 82.954V83.426H503.751V82.954C506.111 78.942 504.813 72.57 501.863 65.136L499.385 58.882H465.165L462.687 65.372C459.737 73.042 458.675 78.942 461.153 82.954V83.426H444.279V82.954C448.527 78.942 450.533 73.042 453.483 65.254L478.499 1.41602H488.647ZM481.803 15.812L468.351 50.74H496.199L482.275 15.812H481.803Z" fill="black"/>
<path d="M410.288 43.542L443.21 83.19V83.426H428.224L397.19 44.722H388.694V65.018C388.694 73.986 389.52 78.824 392.47 82.954V83.426H373.472V82.954C376.422 78.824 377.248 73.986 377.248 65.018V19.47C377.248 11.092 376.54 5.90002 373.472 1.88802V1.41602H402.146C420.2 1.41602 430.82 10.03 430.82 22.774C430.82 33.158 423.268 41.182 410.288 43.542ZM388.694 9.32202V36.698H400.022C412.294 36.698 418.548 31.388 418.548 22.892C418.548 13.924 412.176 9.32202 400.14 9.32202H388.694Z" fill="black"/>
<path d="M319.277 84.842C295.323 84.842 278.449 66.906 278.449 42.48C278.449 18.054 295.323 0 319.277 0C343.467 0 360.105 18.054 360.105 42.48C360.105 66.906 343.349 84.842 319.277 84.842ZM319.277 76.346C336.033 76.346 347.243 62.658 347.243 42.48C347.243 22.302 336.033 8.378 319.277 8.378C302.521 8.378 291.193 22.302 291.193 42.48C291.193 62.658 302.521 76.346 319.277 76.346Z" fill="black"/>
<path d="M239.494 84.842C230.762 84.842 221.912 82.01 215.304 76.936V62.894H215.894C222.266 72.098 230.526 76.464 239.376 76.464C248.226 76.464 256.014 71.744 256.014 63.012C256.014 57.23 252.592 53.808 245.04 50.386L233.594 45.312C222.384 40.238 217.31 32.686 217.31 23.6C217.31 10.502 228.756 0 244.922 0C253.182 0 260.616 2.47799 265.336 5.546V19.116H264.746C260.026 11.682 252.71 8.26 245.04 8.26C235.718 8.26 228.638 12.98 228.638 21.476C228.638 26.668 231.352 30.798 239.022 34.22L250.704 39.53C261.56 44.486 267.578 50.74 267.578 60.888C267.578 75.048 255.188 84.842 239.494 84.842Z" fill="black"/>
<path d="M203.948 68.086H204.538V83.426H145.656V82.954C148.606 78.824 149.432 73.986 149.432 65.136V19.588C149.432 10.974 148.724 5.90002 145.656 1.88802V1.41602H203.004V15.222H202.414C199.346 10.974 194.626 9.55802 184.36 9.55802H160.996V37.878H178.932C188.254 37.878 192.502 36.462 195.334 33.512H195.924V50.268H195.334C192.502 47.2 188.254 45.902 178.932 45.902H160.996V75.284H186.012C195.216 75.284 200.762 73.75 203.948 68.086Z" fill="black"/>
<path d="M105.147 43.542L138.069 83.19V83.426H123.083L92.0491 44.722H83.5531V65.018C83.5531 73.986 84.3791 78.824 87.3291 82.954V83.426H68.3311V82.954C71.2811 78.824 72.1071 73.986 72.1071 65.018V19.47C72.1071 11.092 71.3991 5.90002 68.3311 1.88802V1.41602H97.0051C115.059 1.41602 125.679 10.03 125.679 22.774C125.679 33.158 118.127 41.182 105.147 43.542ZM83.5531 9.32202V36.698H94.8811C107.153 36.698 113.407 31.388 113.407 22.892C113.407 13.924 107.035 9.32202 94.9991 9.32202H83.5531Z" fill="black"/>
<path d="M26.904 50.15H15.34V65.254C15.34 73.868 16.284 78.824 19.706 82.954V83.426H0V82.954C3.068 78.824 3.776 73.868 3.776 65.254V19.588C3.776 10.974 3.068 5.90002 0 1.88802V1.41602H26.904C44.958 1.41602 57.112 10.384 57.112 25.606C57.112 40.592 44.958 50.15 26.904 50.15ZM24.544 9.32202H15.34V42.126H24.544C37.288 42.126 44.84 36.934 44.84 25.606C44.84 14.16 37.288 9.32202 24.544 9.32202Z" fill="black"/>
</svg>
